<?xml version="1.0" encoding="UTF-8" standalone="no"?>
<svg width="230px" height="46px" viewBox="0 0 230 46" version="1.1" xmlns="http://www.w3.org/2000/svg" xmlns:xlink="http://www.w3.org/1999/xlink">
    <!-- Generator: Sketch 40.3 (33839) - http://www.bohemiancoding.com/sketch -->
    <title>Combined Shape</title>
    <desc>Created with Sketch.</desc>
    <defs></defs>
    <g id="Symbols" stroke="none" stroke-width="1" fill="none" fill-rule="evenodd">
        <g id="Top_Navigation_area" transform="translate(-396.000000, 0.000000)" fill="#000000">
            <g id="Navigation">
                <g id="FRANTIC-logo" transform="translate(396.000000, 0.000000)">
                    <path d="M0,1.46440006 L26.0718939,1.46440006 L26.0718939,11.2813551 L11.2281818,11.2813551 L11.2281818,18.7338448 L22.6184091,18.7338448 L22.6184091,28.556004 L11.2281818,28.556004 L11.2281818,45.237368 L0,45.237368 L0,1.46440006 Z M127.223106,27.8256739 L127.223106,1.46440006 L138.001742,1.46440006 L138.001742,45.3431878 L128.235455,45.3431878 L111.61447,19.2490657 L111.61447,45.3431878 L100.837576,45.3431878 L100.837576,1.46440006 L110.544621,1.46440006 L127.223106,27.8256739 Z M149.940833,11.3073763 L141.244394,11.3073763 L141.244394,1.46440006 L169.832348,1.46440006 L169.832348,11.3073763 L161.196894,11.3073763 L161.196894,45.3431878 L149.940833,45.3431878 L149.940833,11.3073763 Z M173.142955,1.46440006 L184.397273,1.46440006 L184.397273,45.3431878 L173.142955,45.3431878 L173.142955,1.46440006 Z M94.6415152,1.46440006 L83.477803,1.46440006 L83.3854545,1.46440006 L58.925303,36.1854381 L54.9874242,29.2152093 C57.0696212,28.3252821 59.2180303,26.8438049 60.7043182,24.531382 C61.9553788,22.5728483 62.9084848,19.9637831 62.9084848,16.5862231 C62.9084848,11.7792286 61.2409848,7.45275997 57.5487879,4.60776859 C55.1076515,2.70995117 50.8195455,1.46440006 43.9108333,1.46440006 L29.4975,1.46440006 L29.4975,45.3414531 L40.7535606,45.3414531 L40.7535606,11.3056416 L44.9231818,11.3056416 C46.4739394,11.3056416 48.2599242,11.720247 49.5109848,12.4939459 C50.9990152,13.4428546 52.1298485,15.278221 52.1298485,17.5906439 C52.1298485,20.0227646 51.0007576,22.0992613 49.6312121,22.9874538 C48.139697,23.9346277 45.700303,24.1740233 42.8409848,24.1740233 L40.9940152,24.1740233 L52.4835606,45.3310445 L52.4748485,45.3397183 L52.4870455,45.3397183 L64.0985606,45.3397183 L65.3705303,45.3397183 L83.4795455,19.0755906 L83.4795455,45.3414531 L94.7390909,45.3414531 L94.7390909,1.46440006 L94.6415152,1.46440006 Z M230,34.5562368 C225.964545,41.342582 218.616742,45.5406791 210.286212,45.5406791 C196.468788,45.5406791 187.061439,34.5718495 187.061439,22.711358 C187.061439,11.5048676 195.754394,0 210.16947,0 C219.116818,0 225.365152,4.44790116 228.984167,9.45265733 L219.832955,15.5572456 C218.160227,12.7278669 215.034318,9.84297627 210.108485,9.84471103 C202.546364,9.84471103 198.3175,16.4263558 198.3175,22.6506418 C198.3175,29.291268 202.844318,35.6959681 210.171212,35.6959681 C216.799394,35.6959681 220.6275,28.5852244 220.6275,28.5852244 L230,34.5562368 Z" id="Combined-Shape"></path>
                </g>
            </g>
        </g>
    </g>
</svg>